# xmcd CD database file
#
# Track frame offsets:
#	150
#	16886
#	34252
#	54817
#	75623
#	93040
#	108519
#	124335
#	142484
#	158237
#	178853
#	198856
#	215406
#
# Disc length: 3025 seconds
#
# Revision: 11
# Processed by: cddbd v1.5.2PL0 Copyright (c) Steve Scherf et al.
# Submitted via: CDex 1.51
#
DISCID=af0bcf0d
DTITLE=Joana Zimmer - My Innermost
DYEAR=2005
DGENRE=Pop
TTITLE0=Love Is A Temple
TTITLE1=Lucky Star
TTITLE2=I Believe (Give A Little Bit...)
TTITLE3=When We Dance
TTITLE4=I've Learned To Walk Alone
TTITLE5=What You Give Is What You Get
TTITLE6=Any Other Day
TTITLE7=Island In The Stream
TTITLE8=Got To Be Sure
TTITLE9=When You Love Somebody
TTITLE10=Miss You In My Arms
TTITLE11=In The End
TTITLE12=Because Of You
EXTD=YEAR: 2005
EXTT0=
EXTT1=
EXTT2=
EXTT3=
EXTT4=
EXTT5=
EXTT6=
EXTT7=
EXTT8=
EXTT9=
EXTT10=
EXTT11=
EXTT12=
PLAYORDER=
